<style>:root{--ca-spotlight-w:1903;--ca-spotlight-h:609;}</style><svg id="caSpotlightSprite" aria-hidden="true" focusable="false" style="position:absolute;width:0;height:0;overflow:hidden" xmlns="http://www.w3.org/2000/svg" xmlns:xlink="http://www.w3.org/1999/xlink"><symbol id="ca-monthly-spotlight" viewBox="0 0 1903 609"><defs>
    <style>
      .st0 {
        fill: url(#linear-gradient);
      }

      .st1 {
        fill: currentColor;
      }
    </style>
    <linearGradient id="linear-gradient" x1="437.05" y1="479.62" x2="692.73" y2="479.62" gradientUnits="userSpaceOnUse">
      <stop offset="0" stop-color="#e32929"/>
      <stop offset="1" stop-color="#ff8d30"/>
    </linearGradient>
  </defs>
  <g>
    <path class="st1" d="M187.06,90.54l-70.21,132.34L46.64,90.54v171.3H2.9V4.53h42.27l71.68,135.28L188.53,4.53h42.27v257.32h-43.74V90.54Z"/>
    <path class="st1" d="M461.62,172.52c0,60.65-39.33,93-101.46,93s-100.72-32.35-100.72-93v-79.03c0-60.29,39.33-92.63,101.46-92.63s100.72,32.35,100.72,92.63v79.03ZM417.88,93.48c0-35.29-22.06-54.77-56.98-54.77s-57.71,19.48-57.71,54.77v79.03c0,35.66,22.06,54.77,56.98,54.77s57.71-19.12,57.71-54.77v-79.03Z"/>
    <path class="st1" d="M555.65,84.66v177.18h-43.74V4.53h40.8l113.95,177.18V4.53h43.74v257.32h-40.8l-113.95-177.18Z"/>
    <path class="st1" d="M757.34,4.53h201.07v37.86h-78.67v219.45h-43.74V42.39h-78.67V4.53Z"/>
    <path class="st1" d="M1140,151.93h-111.01v109.91h-43.74V4.53h43.74v109.54h111.01V4.53h43.74v257.32h-43.74v-109.91Z"/>
    <path class="st1" d="M1242.35,4.53h43.74v219.09h129.02v38.23h-172.77V4.53Z"/>
    <path class="st1" d="M1492.71,261.84h-43.74v-94.47L1354.86,4.53h52.2l64.33,118.73,65.8-118.73h49.26l-93.74,162.84v94.47Z"/>
  </g>
  <g>
    <path class="st1" d="M116.51,505.88l-42.15-7.33c-43.99-7.7-70.38-32.99-70.38-73.31,0-54.61,37.75-81.01,98.6-81.01s98.6,26.4,98.6,78.07v6.23h-56.82v-6.23c0-19.06-15.39-28.59-41.79-28.59s-39.95,7.7-39.95,27.49c0,13.56,10.63,22.72,26.02,25.29l42.15,7.33c46.19,8.06,70.38,32.99,70.38,72.94,0,54.98-37.75,81.38-98.6,81.38S3.98,581.75,3.98,530.08v-6.23h56.82v6.23c0,19.06,15.39,28.59,41.79,28.59s39.95-7.33,39.95-27.85c0-13.93-10.63-22.36-26.02-24.93Z"/>
    <path class="st1" d="M228.56,347.9h105.57c53.15,0,87.97,24.93,87.97,85.41s-34.46,85.77-87.97,85.77h-48.75v85.41h-56.82v-256.59ZM285.37,469.59h46.92c19.06,0,31.16-8.8,31.16-36.29s-12.46-35.92-31.16-35.92h-46.92v72.21Z"/>
    <path class="st1" d="M686.35,347.9h201.97v49.49h-72.58v207.1h-56.82v-207.1h-72.58v-49.49Z"/>
    <path class="st1" d="M916.78,347.9h56.82v207.1h122.06v49.49h-178.87v-256.59Z"/>
    <path class="st1" d="M1114.14,347.9h56.82v256.59h-56.82v-256.59Z"/>
    <path class="st1" d="M1346.62,515.05v-3.3h-54.25v-49.48h111.06v142.22h-41.79l-8.43-19.07c-15.76,15.03-38.49,22.73-65.25,22.73-52.42,0-89.07-30.42-89.07-93.1v-75.87c0-65.25,40.32-94.94,102.63-94.94s101.9,23.83,101.9,83.57v4.4h-56.82v-4.4c0-23.83-17.96-34.09-45.09-34.09s-45.82,12.83-45.82,45.45v75.87c0,28.96,17.96,43.62,45.09,43.62s45.82-14.66,45.82-43.62Z"/>
    <path class="st1" d="M1602.58,500.75h-90.9v103.74h-56.82v-256.59h56.82v103.37h90.9v-103.37h56.82v256.59h-56.82v-103.74Z"/>
    <path class="st1" d="M1697.14,347.9h201.97v49.49h-72.58v207.1h-56.82v-207.1h-72.58v-49.49Z"/>
  </g>
  <circle class="st0" cx="564.89" cy="479.62" r="127.84"/></symbol></svg>